<svg xmlns="http://www.w3.org/2000/svg" viewBox="0 0 1000 1000"><path d="M448.14 11.76C331.38 24.78 226.02 76.85 146.28 159.84 55.16 255.04 9.6 369.36 10 501.98c.41 138.73 54.11 261.99 154.59 355.97 124.08 115.94 297.79 159.47 461.33 115.54 84.62-22.38 156.22-64.29 219.68-127.34 124.89-125.3 172.9-302.67 127.74-472.32C924.52 191.98 775.22 52.85 590.93 17.87c-38.64-7.33-106.58-10.58-142.79-6.11zm102.93 32.96c194.05 21.56 352.71 165.17 396.65 359.22 9.76 43.94 11.8 131.81 3.66 173.3-18.71 96.82-61.43 179.41-128.55 246.12C756.1 890.49 673.52 933.2 576.7 951.92c-41.5 8.14-129.37 6.1-173.31-3.66C262.63 916.53 147.51 825.4 86.08 697.25 1.87 521.5 37.67 314.44 175.58 176.12 275.65 76.45 410.72 28.85 551.07 44.72z"/><path d="M422.11 131.77c-71.19 15.46-132.62 49.63-187.14 103.74-74.85 75.26-109.84 159.07-109.84 264.43 0 96.82 32.54 181.85 96.42 252.23 34.58 37.83 68.75 62.65 117.16 85.84 62.24 29.29 85.43 34.17 164.76 33.76 61.84 0 69.57-1.22 101.71-11.39C712.17 825.4 789.46 759.49 835.03 664.7c32.54-67.53 36.61-85.43 36.61-164.76 0-53.7-1.63-72.41-7.73-93.57-10.98-38.65-43.12-104.14-65.09-133.03-53.29-70.78-137.1-123.26-223.34-141.16-38.24-8.13-116.76-8.13-153.37-.41zm53.7 88.28l1.22 62.24 17.49 1.22 17.09 1.22V158.2h15.46c16.68 0 66.72 10.17 75.67 15.05 4.88 2.85 1.63 13.02-16.27 55.73-12.21 28.88-21.97 54.51-21.97 57.36 0 4.88 16.68 14.24 26.03 14.24 3.26 0 14.65-22.78 27.26-53.29C630 218 642.2 193.18 644.64 191.96c6.1-2.44 60.61 30.51 72.41 43.53 7.73 8.55 7.73 8.55-35.8 52.07l-43.53 43.94 12.21 11.8 12.2 11.39 45.16-43.94 45.16-44.34 8.14 10.17c17.49 21.56 47.6 70.78 44.75 73.23-1.63 1.22-27.26 12.2-56.55 24-29.7 11.8-54.11 22.78-54.11 24.41 0 8.55 9.76 28.48 13.83 28.48 2.85 0 27.67-9.36 55.33-20.34 27.66-11.39 52.48-20.34 55.33-20.34 5.7 0 16.68 37.43 20.34 69.97l2.85 23.59H719.09l-2.44 9.77c-6.11 24.43-5.3 24.83 63.05 26.05l62.65 1.22-2.85 25.63c-2.03 21.16-12.61 66.72-16.27 70.38-.81.81-26.44-9.77-57.36-23.59-30.51-13.42-56.55-24-56.95-23.19-6.1 7.32-14.24 29.29-11.39 31.73 1.62 1.63 27.66 13.42 57.36 26.44 29.29 13.02 53.7 24.41 53.7 26.04 0 5.69-49.63 77.7-53.7 77.7-1.22 0-21.56-19.53-45.16-43.94L666.6 640.3l-12.61 12.2-12.21 12.61 43.12 45.56 43.13 45.56-9.76 8.14c-20.34 17.49-69.16 45.56-72.41 42.31-2.03-2.03-13.02-28.07-24.41-57.77-16.27-41.5-22.78-53.7-27.26-52.07-3.25 1.63-10.58 3.66-15.87 4.88-5.29 1.22-9.76 4.47-9.76 7.32 0 2.44 9.36 28.07 20.34 56.55 11.39 28.89 20.34 53.7 20.34 55.73 0 5.29-37.43 15.87-67.53 18.72l-26.03 2.84V715.54h-15.87c-10.58 0-16.68 2.03-18.31 6.51-1.22 3.66-2.44 32.14-2.44 63.46v57.36l-24.41-2.84c-25.22-2.85-64.68-13.02-70.38-18.31-1.63-1.63 8.14-27.26 21.56-56.55 13.83-29.7 23.59-55.33 22.78-57.36-4.07-6.1-27.26-13.83-30.51-10.17-2.03 2.03-13.83 26.44-26.04 54.51-12.61 28.07-24.82 51.26-26.85 52.07-4.07 1.22-50.44-27.66-69.57-43.94l-10.17-8.54 45.97-43.53 45.97-43.53-11.39-11.39c-6.51-6.1-13.42-10.99-15.05-10.99s-22.38 18.31-46.38 40.68c-41.5 39.06-43.12 40.28-50.85 33.36-11.8-10.58-48.01-71.19-44.34-74.45 2.03-2.44 70.79-28.89 109.44-42.31 3.66-1.22 4.07-4.88.41-15.05-2.44-7.32-5.7-15.05-7.32-16.68-1.63-1.63-28.07 6.1-58.99 17.49-30.92 11.39-57.77 19.12-59.8 17.09-4.88-4.88-15.46-56.95-15.46-77.7v-17.5l17.49 2.44c9.36 1.22 37.43 2.44 61.84 3.25l44.75.81 1.22-16.68c1.22-15.46.41-16.68-11.8-19.12-6.92-1.22-31.32-2.44-54.11-2.44-22.38 0-45.16-1.22-50.44-2.44-8.95-2.44-9.36-4.07-6.92-23.59 3.66-24 17.49-71.6 21.16-71.6 1.63 0 26.04 10.99 54.92 24.41 28.48 13.42 53.29 24.41 55.33 24.41 3.26 0 18.71-28.48 16.27-30.51-.81-.41-26.04-12.61-56.14-26.44-30.1-13.83-55.73-26.03-56.14-26.85-2.03-1.63 32.55-53.3 45.56-68.75l10.58-12.2 15.05 16.27c8.54 8.95 27.66 30.11 42.72 46.78l27.26 30.51 13.02-13.02 13.02-13.01-41.9-45.56-41.5-45.97 12.61-10.58c15.46-13.02 61.84-40.68 67.94-40.68 2.44 0 13.42 25.22 24 55.73 10.58 30.92 19.93 56.95 20.75 57.77 1.63 1.63 34.17-8.14 34.17-10.17 0-.41-9.36-26.85-20.75-58.58-11.39-31.73-19.53-58.58-18.71-59.39 2.85-2.85 52.48-13.02 64.69-13.42l10.98-.41 1.21 61.85z"/><path d="M488.01 355.93c-10.58 7.32-11.39 17.08-2.85 28.48 3.66 4.88 5.69 17.49 6.1 34.98v26.85l-15.05 7.73c-8.54 4.47-18.31 14.24-22.78 22.78l-7.73 15.06h-26.85c-17.49-.41-30.11-2.44-34.99-6.1-11.8-8.95-21.56-7.32-29.29 4.07-6.1 9.36-6.1 10.98 0 20.34 7.73 11.39 17.49 13.02 29.29 4.07 4.88-3.66 17.49-5.69 34.99-6.1h26.85l7.73 15.05c4.47 8.54 14.24 18.31 22.78 22.78l15.05 7.73v26.85c-.41 17.5-2.44 30.11-6.1 34.99-8.95 11.79-7.32 21.56 4.07 29.29 9.36 6.1 10.98 6.1 20.34 0 11.39-7.73 13.02-17.5 4.07-29.29-3.66-4.88-5.7-17.49-6.1-34.99v-26.85l15.05-7.73c8.54-4.47 18.31-14.24 22.78-22.78l7.73-15.06h26.85c17.49.41 30.11 2.44 34.99 6.1 11.8 8.95 21.56 7.32 29.29-4.07 6.1-9.36 6.1-10.98 0-20.34-7.73-11.39-17.49-13.02-29.29-4.07-4.88 3.66-17.49 5.7-34.99 6.1H553.1l-7.73-15.05c-4.47-8.54-14.24-18.31-22.78-22.78l-15.05-7.73v-26.85c.41-17.49 2.44-30.11 6.1-34.98 8.54-11.39 7.73-21.16-2.85-28.48-4.88-3.66-10.17-6.51-11.39-6.51s-6.51 2.85-11.39 6.51z"/></svg>