<svg xmlns="http://www.w3.org/2000/svg" width="32" height="32"><path d="M16 0C7.17 0 0 7.17 0 16s7.17 16 16 16 16-7.17 16-16S24.83 0 16 0zm0 1c8.29 0 15 6.71 15 15s-6.71 15-15 15S1 24.29 1 16 7.71 1 16 1zm0 4.344C10.128 5.344 5.437 10.132 5.437 16S10.128 26.656 16 26.656c5.794 0 10.563-4.784 10.563-10.656a.41.41 0 000-.094C26.517 10.076 21.843 5.344 16 5.344zm-2.063 1.031V8.75a7.269 7.269 0 00-1.562.656L10.687 7.75a9.633 9.633 0 013.25-1.375zm4.126 0a9.633 9.633 0 013.25 1.375l-1.657 1.656c-.503-.283-1.026-.53-1.593-.687V6.375zM16 9.281c3.699-.077 6.719 3.01 6.719 6.719A6.72 6.72 0 0116 22.719 6.72 6.72 0 019.281 16 6.72 6.72 0 0116 9.281zm-8.188 1.406l1.594 1.688a7.264 7.264 0 00-.656 1.563H6.469a9.74 9.74 0 011.343-3.25zm16.375 0a9.735 9.735 0 011.344 3.25H23.22a7.468 7.468 0 00-.625-1.562l1.593-1.688zm-8.687.72V12c-.9.164-1.375.873-1.375 1.938 0 2.293 2.531 2.487 2.531 4.124 0 .574-.247.813-.656.813-.41 0-.656-.24-.656-.813v-.656h-1.219v.563c0 1.146.474 1.805 1.375 1.968v.563h1.063v-.563c.9-.163 1.406-.904 1.406-1.968 0-2.293-2.532-2.374-2.532-4.094 0-.573.247-.813.657-.813.41 0 .656.24.656.813v.313h1.219v-.25c0-1.065-.506-1.774-1.407-1.938v-.594H15.5zm-9.031 6.655H8.75c.158.56.38 1.064.656 1.563l-1.594 1.688a9.737 9.737 0 01-1.343-3.25zm16.781 0h2.281a9.774 9.774 0 01-1.343 3.25l-1.594-1.687a7.258 7.258 0 00.656-1.563zm-10.875 4.532a7.257 7.257 0 001.563.656v2.375a9.633 9.633 0 01-3.25-1.375l1.687-1.656zm7.25 0h.031l1.625 1.656a9.519 9.519 0 01-3.218 1.344V23.25a7.257 7.257 0 001.562-.656z" stroke="#fff" fill="#00f" color="#000" font-family="Sans" font-weight="400" overflow="visible" style="text-indent:0;text-align:start;line-height:normal;text-transform:none;block-progression:tb;marker:none;-inkscape-font-specification:Sans"/></svg>