<svg xmlns="http://www.w3.org/2000/svg" viewBox="0 0 463 463"><g transform="translate(0 -540.36)"><path d="M357.35 540.36h-253c-21.9 0-40.4 18.3-40.4 39.9v382c0 22.7 18.1 41.1 40.4 41.1h253c23 0 41.7-18.4 41.7-41.1v-382c0-22-18.7-39.9-41.7-39.9zm26.8 421.9c0 14.6-11.8 26.1-26.7 26.1h-253c-13.8 0-25.4-12-25.4-26.1v-382c0-13.3 11.9-24.9 25.4-24.9h253c14.5 0 26.7 11.4 26.7 24.9v382z"/><circle cx="184.45" cy="962.858" r="7.5"/><path d="M155.65 955.36h-34.2c-5 0-8.9-4.3-8.9-9.9v-32.4c0-4.1-3.4-7.5-7.5-7.5s-7.5 3.4-7.4 7.5v32.4c0 13.7 10.7 24.9 23.9 24.9h34.1c4.1 0 7.5-3.4 7.5-7.5s-3.4-7.5-7.5-7.5z"/><circle cx="278.65" cy="580.858" r="7.5"/><path d="M341.55 573.36h-34.1c-4.1 0-7.5 3.4-7.5 7.5s3.4 7.5 7.5 7.5h34.2c5 0 8.9 4.3 8.9 9.9v32.4c0 4.1 3.4 7.5 7.5 7.5s7.5-3.4 7.4-7.5v-32.4c0-13.7-10.7-24.9-23.9-24.9zm-91.5 110.9c-3.5-6.7-10.1-10.9-17.7-11.3-8.1-.4-16 3.8-20.5 10.9-.1.1-.1.2-.2.3l-43 74.6c-5.2 8.6-5.1 19.2.2 26.6l42.8 74.3c.1.1.1.2.2.3 4.4 6.8 11.8 10.9 19.5 10.9.4 0 .7 0 1-.1 7.6-.4 14.2-4.6 17.7-11.3l44-74.1c5.4-7.3 5.4-18 .2-26.6l-44.2-74.5zm31.8 92.4c-.2.2-.4.4-.5.7l-44.3 74.7c0 .1-.1.3-.2.4-1.5 2.8-3.9 3.3-5.2 3.4-2.7.1-5.3-1.3-7-3.9l-42.8-74.4c-.1-.3-.3-.5-.5-.8-1.9-2.5-1.8-6.7.4-10.2 0-.1.1-.1.1-.2l42.9-74.5c1.6-2.6 4.2-4 7-3.9 1.4.1 3.8.6 5.2 3.4 0 .1.1.3.2.4l44.3 74.7c2.1 3.5 2.3 7.7.4 10.2z"/></g></svg>