<svg xmlns="http://www.w3.org/2000/svg" viewBox="0 0 1000 1000"><path d="M419.05 12.79c-5.75 2.11-91.58 30.46-190.64 63.23-99.05 32.76-183.55 61.31-187.95 63.23-19.93 9.01-30.27 24.52-30.46 45.22 0 12.65 4.98 28.16 95.8 297.93 69.17 205.58 97.33 286.81 101.54 292.95 3.07 4.79 9.96 11.3 15.14 14.56 15.71 9.58 26.06 8.43 77.21-8.62 23.37-7.85 42.92-13.79 43.3-13.41.38.58 15.52 28.17 33.72 61.31s35.25 62.65 37.94 65.53c8.62 9.2 10.73 9.39 81.04 8.81l66.1-.58 10.54-4.98c5.94-2.68 23.57-14.56 39.28-26.44l28.74-21.27.96 31.04c.96 34.1 2.68 40.04 12.84 47.13 11.3 7.66 104.42 56.33 112.85 59.01 4.98 1.53 12.45 2.68 16.67 2.68 4.22 0 46.56-5.17 94.07-11.69 96.37-13.03 100.39-13.99 107.87-27.59 4.41-7.66 4.41-7.85 4.41-106.14 0-69.16-.57-100.59-2.3-105.76-4.02-13.99-12.64-21.27-48.86-41-18.78-10.15-34.87-19.16-35.63-19.93-.77-.77 18.39-98.86 42.72-217.84C970.07 340.99 990 240.21 990 236.19c0-18.58-9.39-35.44-24.33-43.49-7.47-4.02-37.93-10.92-160.55-35.83-217.27-43.87-248.69-50.01-258.08-50.01-9.77 0-26.44 7.66-32 14.56l-3.64 4.6-14.75-43.87c-16.29-49.24-20.69-57.1-37.17-65.91-12.84-7.09-26.44-8.24-40.43-3.45zm24.72 37.94c4.6 4.41 9.58 17.82 30.65 80.47l25.1 75.1-42.15 200.79c-23.38 110.36-42.73 202.71-43.3 205-.77 2.49-17.82 16.67-45.98 37.94-30.08 22.61-46.75 36.4-50.2 41.58-6.52 9.96-6.52 19.35.38 31.04 2.68 4.6 4.98 9.2 4.98 10.16s-16.67 7.09-37.17 13.99c-33.72 11.11-37.55 11.88-42.73 9.77-3.26-1.34-6.71-4.21-8.05-6.51-5.17-10.35-187.95-557.92-187.95-563.48 0-4.02 1.53-7.66 4.41-10.35 2.68-2.49 69.74-26.06 191.98-67.25C347.01 74.3 433.03 45.75 434.76 45.75c1.92-.2 5.94 2.1 9.01 4.98zm303.86 132c128.56 26.25 195.04 40.43 198.11 42.73 2.68 1.72 5.37 5.36 6.32 8.05.96 3.26-11.3 66.67-41.38 214.01-23.37 115.15-43.11 209.6-43.49 209.79-.38.38-7.86.19-16.48-.19l-15.52-.77-1.15-6.13c-1.34-7.28-13.79-26.63-22.8-35.44l-6.71-6.32-12.07 5.94c-29.89 14.95-44.26 34.87-36.21 50.2 1.15 1.92 1.34 3.64.57 3.64-.76 0-15.71 2.11-33.14 4.79-17.24 2.49-31.61 4.41-31.8 4.21-1.15-1.15-48.67-88.33-48.67-89.28 0-.57 3.83 2.68 8.43 7.28l8.24 8.05 12.26-4.98c53.08-22.43 94.84-51.55 114.96-80.29 22.42-31.8 22.23-63.8-.38-88.32-11.5-12.45-24.33-18.58-41.39-19.73-16.86-1.15-28.55 1.92-40.81 10.35l-9 6.13-7.47-10.73c-27.97-40.81-88.71-35.83-109.59 8.81-4.6 9.58-5.17 13.22-5.17 30.08 0 20.31 3.64 34.87 13.99 55.56 6.51 13.22 22.8 37.93 33.91 51.54 5.56 6.9 7.66 10.73 5.56 9.77-17.25-7.09-17.25-7.28-80.1-5.94-67.82 1.53-67.44 1.53-85.07 14.75-5.56 4.41-10.73 7.47-11.11 6.9-.57-.38 9.58-52.11 22.22-114.57 12.84-62.65 32.57-160.36 44.26-217.27 19.35-95.6 21.27-103.84 25.87-107.87 2.68-2.3 6.32-4.22 8.05-4.22 1.72.01 90.24 17.82 196.76 39.47zM593.21 586.61c-3.83 3.45-132.2 96.37-136.8 99.25-5.75 3.26-10.15 3.45-56.33 3.06l-50.01-.57 65.33-48.86c36.02-26.82 67.82-49.81 70.51-51.16 3.45-1.53 20.5-2.3 56.52-2.49 28.36.01 51.16.39 50.78.77zm53.26 50.01c13.03 23.18 23.57 42.53 23.57 43.11 0 .58-4.21 2.49-9.39 4.41-5.36 1.92-11.69 5.94-14.37 9.2l-4.98 5.94v125.49l-31.04 22.99c-41.96 30.84-40.81 30.07-44.06 26.82-5.55-5.75-91.58-165.92-91.58-170.71 0-5.94 0-5.94 82.39-66.1 33.15-24.33 61.69-44.07 63.23-43.68 1.52.18 13.4 19.34 26.23 42.53zm255.97 64.37c23.95 13.03 43.49 24.14 43.49 24.72 0 1.92-168.03 22.8-172.63 21.46-7.09-2.11-90.05-47.32-87.94-47.9 6.32-2.3 159.6-22.99 165.92-22.61 5.75.38 19.55 6.9 51.16 24.33zm-520.56 46.56c4.98 4.98 6.51 8.24 6.51 13.22 0 4.21-1.15 7.09-2.87 7.85-9.96 3.83-26.63-16.86-20.12-24.71 3.84-4.6 9.59-3.26 16.48 3.64zm587.04 1.15c1.34 2.49 1.92 34.1 1.53 97.71-.57 82.96-.96 94.07-3.64 96.75-2.3 2.3-23.95 5.94-86.22 14.56-45.79 6.13-86.03 11.3-89.28 11.3H785v-98.48c0-88.71.38-98.67 3.06-100.97 2.87-2.3 154.43-23.76 172.63-24.52 4.4-.18 6.7.97 8.23 3.65zm-290.07 7.28c10.35 6.9 7.47 34.87-2.87 29.31-5.36-2.87-8.05-6.9-9-13.99-1.92-11.87 4.4-20.3 11.87-15.32zm66.87 36.79c3.45 6.71 3.83 19.35.57 22.61-6.13 6.13-14.75-.57-16.29-12.64-1.34-9.58 1.92-15.71 8.05-15.71 3.26-.01 5.56 1.71 7.67 5.74zM712 832.04c5.36 6.9 6.71 15.14 3.64 21.46-3.26 6.9-8.62 6.9-13.79 0-6.71-9-4.21-26.25 3.64-26.25 1.53 0 4.4 2.11 6.51 4.79zm-202.9 15.52c4.41 5.17 5.75 8.43 5.36 12.84-.38 5.17-1.53 6.32-5.94 6.71-9.2 1.15-21.27-14.75-17.82-23.57 2.12-5.56 11.69-3.45 18.4 4.02zm169.75 23.38c6.71 4.41 9.01 22.61 3.45 27.97-4.02 4.02-5.17 3.83-10.16-1.53-10.53-11.12-4.78-34.11 6.71-26.44zm66.87 36.78c3.45 6.71 3.83 19.35.57 22.61-6.13 6.13-14.75-.57-16.29-12.64-1.34-9.58 1.92-15.71 8.05-15.71 3.26-.01 5.56 1.72 7.67 5.74z"/><path d="M121.7 199.02c-3.06 1.72-3.45 5.75-3.45 39.08v37.17l4.41-1.53c3.64-1.34 4.41-3.26 5.17-13.6l.96-12.07 9.58-3.45c5.36-1.92 10.54-3.45 11.88-3.45 1.15-.19 4.98 3.64 8.43 8.43 5.94 8.24 11.5 10.92 14.18 6.71 1.53-2.49-41.38-59.2-45.02-59.2-1.54-.01-4.42.76-6.14 1.91zm16.48 22.41c5.17 6.71 9.01 12.45 8.62 12.65-.38.38-4.79 1.92-9.58 3.64l-9 2.87-1.15-6.9c-1.72-10.54-1.34-28.16.38-26.25.95 1.16 5.74 7.29 10.73 13.99zm11.87 82.2c-1.92 9.39-3.64 18.2-4.22 19.93-.57 2.11 4.22 7.86 14.56 17.05 8.43 7.66 15.9 13.6 16.29 13.03.57-.38 2.68-9.58 4.79-20.31l4.02-19.35-8.24-7.47c-13.22-12.07-22.03-19.54-22.99-19.54-.57-.01-2.48 7.46-4.21 16.66zm152.13-15.52c0 .96-5.56 31.8-12.45 68.59-6.71 36.98-12.07 67.25-11.88 67.44.19.19 23.18 21.27 51.16 46.56 46.36 42.34 50.77 45.98 52.11 41.96 3.45-11.11 24.52-132.58 23.18-133.73-.77-.77-22.22-20.12-47.51-43.11s-47.9-43.49-50.2-45.6c-2.49-2.11-4.41-3.07-4.41-2.11zm282.41-70.7c-5.94 10.35-14.75 25.1-19.16 32.57-4.6 7.66-7.47 13.99-6.51 13.99.77 0 2.87.57 4.6 1.15 1.92.77 4.6-1.92 8.81-9.58 4.98-8.81 6.9-10.54 10.15-9.77 2.3.57 7.66 1.72 11.88 2.49 8.05 1.53 8.05 1.73 11.69 20.88.58 3.45 7.47 8.05 9.2 5.94.57-.57-8.43-72.81-9.2-73.76 0-.19-2.49-.77-5.17-1.53-4.8-1.15-5.75-.2-16.29 17.62zm17.24 14.56c1.15 10.16.96 11.11-2.11 10.16-1.92-.58-6.71-1.53-10.54-2.3l-7.28-1.15 8.24-14.94c8.05-14.94 8.05-15.14 9.2-9 .77 3.44 1.73 11.1 2.49 17.23zm-47.13 54.61c-6.71.77-16.09 9.96-17.43 17.05-2.68 13.03 5.94 32.38 21.46 49.05 9.96 10.54 11.69 10.73 28.93.77 12.64-7.09 24.14-17.44 27.97-24.52 5.75-11.3 1.92-27.21-7.85-32.38-6.32-3.45-17.05-3.07-22.61.57-3.83 2.68-4.6 2.49-9.01-2.68-5.18-6.14-13.03-9.01-21.46-7.86zm-79.51 343.71c-9.2 3.07-19.35 12.07-16.67 14.94 4.41 4.41 29.7-10.35 26.63-15.33-1.34-2.29-1.72-2.1-9.96.39zm130.28 9.2c-14.75 5.94-7.66 32.57 8.81 32.57 16.67 0 18.2-26.63 1.92-32.38-3.45-1.15-6.13-2.11-6.32-1.92-.19.01-2.11.77-4.41 1.73zm-85.45 63.23c-4.21 3.26-5.17 5.75-5.17 12.26 0 16.09 17.82 24.72 26.82 13.22 11.11-14.18-7.85-36.21-21.65-25.48zm55.18 104.42c-13.22 13.03 4.98 37.36 19.93 26.44 3.64-2.87 5.17-5.75 5.55-11.88.57-6.71-.38-8.81-5.17-13.6-6.9-7.1-13.99-7.48-20.31-.96zm248.11-119.56c-4.79 1.92-4.79 2.11-.96 4.79 2.68 2.11 7.28 2.87 15.71 2.3 13.6-.77 16.48-2.49 11.3-6.51-4.4-3.07-18.96-3.45-26.05-.58zm-49.81 5.75c-4.6 1.92-4.6 2.11-1.15 4.79 4.79 3.45 22.22 3.45 27.01 0 3.45-2.49 3.45-2.68-.57-4.79-4.79-2.49-18.78-2.49-25.29 0zm-49.81 7.47c-5.37 3.26 1.34 6.71 13.41 6.71s18.78-3.45 13.41-6.71c-3.64-2.3-23.18-2.3-26.82 0zm130.85 1.92c-9.39 4.02-3.83 7.66 11.5 7.66 11.5 0 16.86-2.49 13.41-5.94-2.87-2.87-19.54-4.21-24.91-1.72zm-52.3 7.66c-5.36 3.26 1.34 6.71 13.41 6.71s18.78-3.45 13.41-6.71c-3.64-2.3-23.18-2.3-26.82 0zm-47.33 5.75c-9.39 4.02-3.83 7.66 11.5 7.66 11.5 0 16.86-2.49 13.41-5.94-2.87-2.87-19.54-4.21-24.91-1.72zm124.73 4.6c-3.45 2.68-3.45 2.87 2.11 4.98 11.11 4.41 33.72-.77 25.87-5.75-4.41-2.87-23.76-2.3-27.98.77zm-46.17 4.98c-9.39 4.02-3.83 7.66 11.5 7.66 11.5 0 16.86-2.49 13.41-5.94-2.88-2.87-19.55-4.21-24.91-1.72zM785 731.26c-13.22 3.64 1.34 10.54 16.86 8.05 12.65-2.11 7.09-9.39-7.28-9.39-2.69 0-6.9.58-9.58 1.34zm135.84 53.07c-6.71 7.09-6.32 18.78.76 24.91 8.43 7.09 16.86 5.56 22.03-4.41 9.2-17.04-9.96-34.1-22.79-20.5zm-50.59 63.04c-3.64 3.45-4.79 6.71-4.79 13.03 0 14.94 13.99 22.03 23.95 11.88 9.96-9.77 3.45-29.7-9.58-29.7-2.68 0-7.09 2.11-9.58 4.79zm-50.96 67.82c-13.79 13.99.57 36.02 17.43 27.01 4.6-2.49 8.24-13.41 6.51-19.93-1.34-5.94-9.2-12.64-14.56-12.64-2.1.01-6.31 2.5-9.38 5.56z"/></svg>