<svg xmlns="http://www.w3.org/2000/svg" viewBox="0 0 512 512"><circle cx="256" cy="256" r="248" fill="#515262"/><circle cx="256" cy="256" r="102.62" fill="#eff2fa"/><circle cx="285.93" cy="208.97" r="29.931" fill="#fff"/><path d="M358.621 469.793c-136.966 0-248-111.033-248-248 0-90.189 48.154-169.119 120.143-212.522C105.65 21.916 8 127.553 8 256c0 136.966 111.034 248 248 248 46.777 0 90.519-12.966 127.856-35.478a250.777 250.777 0 01-25.235 1.271z" fill="#464655"/><g fill="#2d2b29"><path d="M437.02 74.98C388.667 26.628 324.38 0 256 0S123.333 26.628 74.98 74.98 0 187.62 0 256s26.628 132.667 74.98 181.02S187.62 512 256 512s132.667-26.628 181.02-74.98S512 324.38 512 256s-26.628-132.667-74.98-181.02zM256 496C123.664 496 16 388.336 16 256S123.664 16 256 16s240 107.664 240 240-107.664 240-240 240z"/><path d="M317.627 57.279a207.57 207.57 0 0115.402 5.448 7.972 7.972 0 002.961.571 8.002 8.002 0 002.966-15.433 222.62 222.62 0 00-16.597-5.87 8 8 0 10-4.732 15.284zm-140.38 391.297c-40.466-16.566-75.428-46.252-98.443-83.59a7.997 7.997 0 00-11.008-2.612 8 8 0 00-2.612 11.008c24.779 40.199 62.425 72.162 106.002 90.002a7.977 7.977 0 003.028.598 8.002 8.002 0 003.033-15.406zm261.259-322.481c-17.814-24.984-40.128-45.725-66.322-61.646a8 8 0 00-8.311 13.673c24.33 14.787 45.057 34.053 61.605 57.262a7.99 7.99 0 006.521 3.356 8 8 0 006.507-12.645zM256 136c-66.168 0-120 53.832-120 120s53.832 120 120 120 120-53.832 120-120-53.832-120-120-120zm0 224c-57.346 0-104-46.654-104-104s46.654-104 104-104 104 46.654 104 104-46.654 104-104 104z"/><path d="M279.712 246.926a8.002 8.002 0 0010.931-2.918A40.008 40.008 0 00296 224c0-22.056-17.944-40-40-40s-40 17.944-40 40 17.944 40 40 40c13.233 0 24 10.767 24 24s-10.767 24-24 24-24-10.767-24-24a24.1 24.1 0 01.756-6.008 23.91 23.91 0 012.471-6.024 7.997 7.997 0 00-2.96-10.903 8.003 8.003 0 00-10.914 2.933A39.843 39.843 0 00215.999 288c0 22.056 17.944 40 40 40s40-17.944 40-40-17.944-40-40-40c-13.233 0-24-10.767-24-24s10.767-24 24-24 24 10.767 24 24a23.97 23.97 0 01-3.207 11.995 8.002 8.002 0 002.92 10.931z"/></g></svg>