<svg width="50" height="51" fill="none" xmlns="http://www.w3.org/2000/svg"><rect width="50" height="50" rx="9" fill="#E03640"/><path d="M13.694 18.882h5.598V21h-8.235V8.203h2.637v10.679zm25.618-3.99c0 1.26-.222 2.364-.668 3.313-.445.95-1.084 1.682-1.916 2.197-.826.516-1.775.774-2.848.774-1.06 0-2.006-.255-2.838-.765-.832-.51-1.477-1.236-1.934-2.18-.457-.949-.689-2.039-.694-3.27v-.632c0-1.26.225-2.367.676-3.322.457-.961 1.1-1.696 1.925-2.206.832-.516 1.782-.774 2.848-.774 1.066 0 2.013.258 2.839.774.832.51 1.473 1.245 1.925 2.206.457.955.685 2.06.685 3.313v.572zm-2.672-.58c0-1.342-.24-2.362-.72-3.06-.48-.696-1.166-1.045-2.057-1.045-.885 0-1.568.346-2.048 1.037-.48.686-.724 1.694-.73 3.024v.624c0 1.306.24 2.32.721 3.04.48.721 1.172 1.082 2.074 1.082.885 0 1.565-.346 2.04-1.037.474-.698.714-1.711.72-3.042v-.623zm-16.996 26.07c-.475.57-1.146 1.012-2.013 1.328-.867.31-1.828.466-2.883.466-1.107 0-2.08-.24-2.917-.72-.833-.487-1.477-1.19-1.934-2.11-.451-.92-.683-2.001-.694-3.243v-.87c0-1.278.213-2.382.641-3.314.434-.938 1.055-1.652 1.863-2.145.815-.498 1.767-.747 2.857-.747 1.517 0 2.704.364 3.56 1.09.855.72 1.362 1.773 1.52 3.155h-2.566c-.118-.732-.378-1.268-.783-1.608-.398-.34-.949-.51-1.652-.51-.897 0-1.58.337-2.048 1.011-.469.674-.706 1.676-.712 3.006v.817c0 1.342.255 2.356.765 3.041.51.686 1.257 1.029 2.241 1.029.99 0 1.696-.211 2.118-.633v-2.206h-2.4v-1.943h5.037v5.107zm21.206-4.49c0 1.26-.223 2.364-.668 3.313-.445.95-1.084 1.682-1.916 2.197-.826.516-1.775.774-2.847.774-1.061 0-2.007-.255-2.84-.765-.831-.51-1.476-1.236-1.933-2.18-.457-.949-.688-2.039-.694-3.27v-.632c0-1.26.225-2.367.676-3.322.457-.961 1.1-1.696 1.925-2.206.832-.516 1.782-.774 2.848-.774 1.066 0 2.013.258 2.839.774.832.51 1.474 1.245 1.925 2.206.457.955.685 2.06.685 3.313v.572zm-2.672-.58c0-1.342-.24-2.362-.72-3.06-.48-.696-1.166-1.045-2.057-1.045-.885 0-1.567.346-2.048 1.037-.48.686-.724 1.694-.73 3.024v.624c0 1.306.24 2.32.721 3.04.48.721 1.172 1.082 2.075 1.082.884 0 1.564-.346 2.039-1.037.474-.698.715-1.711.72-3.041v-.624z" fill="#fff"/><path d="M13.694 18.882h-1v1h1v-1zm5.598 0h1v-1h-1v1zm0 2.118v1h1v-1h-1zm-8.235 0h-1v1h1v-1zm0-12.797v-1h-1v1h1zm2.637 0h1v-1h-1v1zm0 11.679h5.598v-2h-5.598v2zm4.598-1V21h2v-2.118h-2zm1 1.118h-8.235v2h8.235v-2zm-7.235 1V8.203h-2V21h2zm-1-11.797h2.637v-2h-2.637v2zm1.637-1v10.679h2V8.203h-2zm24.034 12.2l-.527-.85-.002.001.53.848zm-7.62-2.172l-.901.434.001.002.9-.436zm-.694-3.27h-1v.006l1-.005zm.676-3.954l-.903-.43v.003l.903.427zM31.015 8.8l.525.85h.002l-.527-.85zm5.687 0l-.53.848.007.004.523-.852zm1.925 2.206l-.906.425.004.006.902-.431zm-6.812.237l.819.574.002-.003-.821-.57zm-.73 3.024l-1-.005v.005h1zm4.834 3.709l.825.566.002-.004-.827-.562zm.721-3.042l1 .005v-.005h-1zm1.672-.043c0 1.142-.201 2.096-.573 2.888l1.81.85c.52-1.106.763-2.361.763-3.738h-2zm-.573 2.888c-.37.787-.882 1.366-1.538 1.772l1.054 1.7c1.008-.625 1.773-1.51 2.294-2.622l-1.81-.85zm-1.54 1.774c-.652.407-1.414.622-2.319.622v2c1.24 0 2.377-.3 3.378-.925l-1.06-1.697zm-2.319.622c-.892 0-1.655-.212-2.316-.618l-1.045 1.706c1.003.614 2.133.912 3.361.912v-2zm-2.316-.618c-.657-.402-1.176-.978-1.556-1.763l-1.8.872c.534 1.103 1.304 1.98 2.311 2.597l1.045-1.706zm-1.555-1.76c-.383-.795-.59-1.734-.595-2.84l-2 .009c.006 1.354.261 2.594.793 3.698l1.802-.867zm-.595-2.836v-.633h-2v.633h2zm0-.633c0-1.14.203-2.097.58-2.895l-1.808-.854c-.525 1.112-.772 2.37-.772 3.75h2zm.58-2.893c.382-.804.9-1.385 1.546-1.784L30.49 7.95c-1.006.62-1.771 1.51-2.303 2.627l1.806.86zm1.548-1.785c.66-.41 1.423-.624 2.32-.624v-2c-1.234 0-2.37.301-3.374.924l1.054 1.7zm2.32-.624c.898 0 1.658.215 2.31.622l1.06-1.697c-1-.624-2.134-.925-3.37-.925v2zm2.317.626c.651.4 1.167.979 1.542 1.779l1.81-.85c-.526-1.122-1.294-2.013-2.307-2.634L36.18 9.653zm1.545 1.785c.382.798.588 1.75.588 2.882h2c0-1.376-.251-2.632-.783-3.745l-1.805.864zm.588 2.882v.572h2v-.572h-2zm-.672-.008c0-1.436-.252-2.69-.897-3.627l-1.647 1.135c.316.46.544 1.243.544 2.492h2zm-.897-3.627c-.678-.984-1.68-1.478-2.88-1.478v2c.582 0 .95.203 1.233.613l1.647-1.135zm-2.88-1.478c-1.193 0-2.19.49-2.87 1.466l1.643 1.142c.283-.407.65-.608 1.227-.608v-2zm-2.867 1.463c-.648.925-.904 2.17-.91 3.593l2 .009c.005-1.237.235-2.007.548-2.454l-1.638-1.148zm-.91 3.598v.624h2v-.624h-2zm0 .624c0 1.41.256 2.646.888 3.595l1.664-1.11c-.328-.492-.552-1.282-.552-2.485h-2zm.888 3.595c.675 1.013 1.686 1.527 2.906 1.527v-2c-.584 0-.956-.207-1.242-.636l-1.664 1.11zm2.906 1.527c1.193 0 2.191-.491 2.864-1.471l-1.649-1.132c-.276.402-.638.603-1.215.603v2zm2.866-1.475c.634-.932.888-2.176.894-3.599l-2-.009c-.005 1.237-.232 2.02-.547 2.483l1.653 1.125zm.894-3.604v-.623h-2v.623h2zM19.644 40.383l.768.64.232-.278v-.362h-1zM17.63 41.71l.337.941.006-.002-.343-.939zm-5.8-.255l-.505.863.007.005.498-.868zm-1.934-2.11l-.898.441.002.005.896-.445zm-.694-3.242h-1v.009l1-.01zm.641-4.184l-.907-.42-.002.003.91.417zm1.863-2.145l.52.855.002-.002-.522-.853zm6.416.343l-.647.762.003.003.644-.765zm1.52 3.155v1h1.122l-.128-1.113-.993.114zm-2.566 0l-.987.159.135.842h.852v-1zm-.782-1.608l-.649.76.006.005.643-.765zm-4.412 3.507l-1-.005v.005h1zm5.124 4.254l.707.707.293-.293v-.414h-1zm0-2.206h1v-1h-1v1zm-2.4 0h-1v1h1v-1zm0-1.943v-1h-1v1h1zm5.037 0h1v-1h-1v1zm-.768 4.466c-.337.404-.845.758-1.588 1.029l.686 1.878c.992-.362 1.825-.892 2.438-1.625l-1.536-1.282zm-1.582 1.027c-.744.266-1.59.407-2.546.407v2c1.154 0 2.23-.17 3.22-.525l-.674-1.883zm-2.546.407c-.958 0-1.755-.207-2.42-.588l-.995 1.735c1.01.579 2.16.853 3.415.853v-2zm-2.413-.584c-.652-.382-1.166-.934-1.543-1.691l-1.79.89c.537 1.082 1.312 1.936 2.324 2.527l1.01-1.726zm-1.54-1.687c-.373-.76-.582-1.688-.592-2.812l-2 .019c.012 1.36.267 2.594.796 3.674l1.796-.88zm-.592-2.803v-.87h-2v.87h2zm0-.87c0-1.167.195-2.123.55-2.896l-1.818-.834c-.5 1.09-.732 2.344-.732 3.73h2zm.549-2.893c.358-.775.852-1.33 1.475-1.71l-1.04-1.709c-.993.605-1.742 1.479-2.25 2.58l1.815.839zm1.477-1.711c.636-.39 1.403-.6 2.335-.6v-2c-1.247 0-2.386.286-3.378.893l1.043 1.707zm2.335-.6c1.364 0 2.292.325 2.912.851l1.295-1.524c-1.091-.927-2.536-1.328-4.207-1.328v2zm2.915.854c.616.518 1.035 1.31 1.171 2.504l1.988-.227c-.18-1.572-.775-2.884-1.87-3.807l-1.289 1.53zm2.165 1.39h-2.566v2h2.566v-2zm-1.579.843c-.14-.875-.476-1.67-1.126-2.216l-1.287 1.53c.158.133.344.411.438 1.002l1.975-.316zm-1.12-2.212c-.634-.54-1.443-.749-2.302-.749v2c.547 0 .84.131 1.003.27l1.298-1.52zm-2.302-.749c-1.189 0-2.194.47-2.869 1.44l1.642 1.142c.262-.377.623-.582 1.227-.582v-2zm-2.869 1.44c-.636.914-.884 2.154-.89 3.572l2 .01c.005-1.243.23-2.007.532-2.44l-1.642-1.142zm-.89 3.577v.817h2v-.817h-2zm0 .817c0 1.443.269 2.706.961 3.638l1.605-1.193c-.327-.44-.567-1.203-.567-2.445h-2zm.961 3.638c.73.98 1.798 1.432 3.044 1.432v-2c-.723 0-1.148-.235-1.439-.625l-1.605 1.193zm3.044 1.432c1.09 0 2.125-.225 2.825-.926L16.3 38.718c-.143.143-.52.34-1.41.34v2zm3.118-1.633v-2.206h-2v2.206h2zm-1-3.206h-2.4v2h2.4v-2zm-1.4 1v-1.943h-2v1.943h2zm-1-.943h5.037v-2h-5.036v2zm4.037-1v5.107h2v-5.107h-2zm19.622 6.126l-.527-.85-.002.002.53.848zm-7.62-2.17l-.9.433v.002l.9-.436zm-.694-3.27h-1v.005l1-.005zm.676-3.955l-.903-.43v.003l.903.427zm1.925-2.206l.525.85h.002l-.527-.85zm5.687 0l-.53.848.007.005.523-.853zm1.925 2.206l-.906.425.004.006.902-.431zm-6.812.237l.819.574.002-.003-.82-.57zm-.73 3.024l-1-.005v.005h1zm4.835 3.709l.824.566.002-.004-.826-.562zm.72-3.041l1 .004v-.005h-1zm1.672-.044c0 1.142-.201 2.096-.573 2.888l1.81.85c.52-1.106.763-2.361.763-3.738h-2zm-.573 2.888c-.37.787-.882 1.366-1.538 1.772l1.054 1.7c1.009-.625 1.773-1.51 2.295-2.622l-1.811-.85zm-1.54 1.774c-.652.407-1.414.622-2.318.622v2c1.24 0 2.376-.3 3.377-.925l-1.06-1.697zm-2.318.622c-.893 0-1.656-.212-2.317-.618l-1.045 1.706c1.003.614 2.133.912 3.362.912v-2zm-2.317-.618c-.657-.402-1.176-.978-1.556-1.763l-1.8.872c.534 1.103 1.304 1.98 2.311 2.597l1.045-1.706zm-1.555-1.76c-.383-.795-.59-1.734-.595-2.84l-2 .009c.006 1.354.262 2.595.793 3.698l1.802-.867zm-.595-2.836v-.633h-2v.633h2zm0-.633c0-1.14.204-2.097.58-2.895l-1.808-.854c-.525 1.112-.772 2.37-.772 3.75h2zm.58-2.893c.382-.804.9-1.385 1.546-1.784l-1.05-1.702c-1.006.62-1.771 1.51-2.302 2.627l1.806.86zm1.548-1.785c.66-.41 1.423-.624 2.321-.624v-2c-1.235 0-2.37.301-3.374.924l1.053 1.7zm2.321-.624c.898 0 1.657.215 2.31.622l1.058-1.697c-1-.624-2.133-.925-3.368-.925v2zm2.316.627c.651.398 1.167.978 1.543 1.778l1.81-.85c-.527-1.122-1.294-2.013-2.308-2.634l-1.045 1.706zm1.546 1.784c.381.798.587 1.75.587 2.882h2c0-1.376-.251-2.632-.783-3.745l-1.804.863zm.587 2.882v.572h2v-.572h-2zm-.672-.008c0-1.436-.252-2.69-.897-3.626l-1.647 1.134c.316.46.544 1.243.544 2.492h2zm-.897-3.626c-.678-.985-1.68-1.479-2.88-1.479v2c.582 0 .95.203 1.233.613l1.647-1.134zm-2.88-1.479c-1.193 0-2.19.49-2.87 1.466l1.643 1.142c.283-.407.65-.608 1.227-.608v-2zm-2.867 1.463c-.648.925-.904 2.17-.91 3.593l2 .009c.005-1.237.235-2.007.548-2.454l-1.638-1.148zm-.91 3.598v.624h2v-.624h-2zm0 .624c0 1.41.256 2.646.888 3.595l1.664-1.11c-.328-.492-.552-1.282-.552-2.485h-2zm.888 3.595c.675 1.013 1.687 1.527 2.907 1.527v-2c-.585 0-.957-.207-1.243-.636l-1.664 1.11zm2.907 1.527c1.192 0 2.19-.491 2.863-1.472l-1.649-1.131c-.276.402-.638.603-1.214.603v2zm2.865-1.475c.635-.932.888-2.176.894-3.599l-2-.009c-.005 1.237-.232 2.02-.547 2.483l1.653 1.125zm.894-3.604v-.623h-2v.623h2z" fill="#000"/></svg>