<svg xmlns="http://www.w3.org/2000/svg" viewBox="0 0 512 512"><path d="M230.496 14.645c-39.167 0-75.879 9.624-102.168 18.898a23.633 23.633 0 01-7.876 1.353c-6.691 0-13.208-2.826-18.323-7.661-5.675-5.364-13.291-8.669-21.685-8.669H40.545c-17.555 0-31.919 14.364-31.919 31.919v167.576c0 17.556 14.364 31.919 31.919 31.919h39.899c17.556 0 31.919-14.363 31.919-31.919 0-15.094 10.457-28.666 25.327-31.265a74.906 74.906 0 0112.927-1.098c16.376 0 31.015 4.981 41.543 8.423 8.55 2.795 19.313 3.727 29.884 3.727 21.15 0 41.54-3.73 41.931-3.73.007 0 .007.001.003.003-103.773 47.855-112.061 216.577-111.702 279.415.076 13.184 10.742 23.818 23.926 23.818H320.37c12.846 0 23.354-10.179 23.856-23.015 7.747-198.408 113.763-327.84 148.332-364.962a40.245 40.245 0 0010.815-27.474V58.464c0-10.972-63.839-39.899-71.818-39.899-34.134 0-60.886 6.502-96.792 6.502-17.956 0-38.196-1.625-62.804-6.502-13.894-2.753-27.827-3.92-41.463-3.92z" fill="#515262"/><path d="M231.083 45.208c12.429 0 24.423 1.128 35.648 3.353 23.186 4.596 44.846 6.829 66.217 6.829 19.073 0 35.365-1.715 51.12-3.374 13.784-1.451 26.845-2.826 41.064-2.967 9.557 2.911 36.085 15.482 47.539 23.196v13.67a14.34 14.34 0 01-3.861 9.802c-33.474 35.945-147.565 167.895-155.989 370.246l-126.821.07c-.131-50.152 6.081-203.458 94-244 10.663-4.917 17.771-23.46 15.254-34.93s-12.512-22.07-24.254-22.07c-2.037 0-9.591-2.226-11-2-16.419 2.632-24.611 3-32 3-12.247 0-17.255-.103-20-1l-7.113-1.83c-11.099-3.636-22.434-8.17-41.887-8.17-5.749 0-17.513.041-23 1-26.33 4.601-50 15.632-50 43 0 3.352 1.842 20-1.51 20H45.511c-3.352 0-6.183-3.648-6.183-7V55.222c0-3.352 2.831-6.183 6.183-6.183H84.49c1.884 0 3.222.891 4.013 1.638 9.767 9.231 22.223 14.316 35.073 14.316 5.46 0 10.847-.924 16.011-2.746 22.035-7.773 55.795-17.039 91.496-17.039" fill="#ff6464"/><g fill="#2d2b29"><path d="M498.447 40.509c-7.497-5.221-17.095-10.388-23.827-13.804-9.178-4.656-34.725-16.74-42.62-16.74-17.314 0-32.966 1.648-48.102 3.241-30.425 3.204-61.884 6.516-110.343-3.088-55.449-10.991-111.204 2.263-148.211 15.317-6.041 2.131-12.811.414-18.109-4.594C99.814 13.827 90.142 9.965 80 9.965H40c-22.056 0-40 17.944-40 40v168c0 22.056 17.944 40 40 40h40c22.056 0 40-17.944 40-40 0-11.507 8.068-21.594 18.768-23.464 19.018-3.322 36.734 2.479 49.668 6.716l1.078.353c11.694 3.823 26.711 4.56 40.998 3.968-31.461 25.598-54.728 66.058-69.382 120.787-14.534 54.283-17.33 110.341-17.116 147.809.1 17.553 14.449 31.833 31.986 31.833h144.533c17.22 0 31.236-13.512 31.91-30.761 7.69-196.948 114.13-325.911 146.569-360.746C507.388 105.464 512 93.747 512 81.463V57.965c0-5.619-4.053-10.84-13.553-17.456zM496 81.463a32.31 32.31 0 01-8.697 22.09c-18.235 19.582-53.617 61.743-85.697 124.1-39.858 77.475-61.778 160.552-65.15 246.926-.337 8.627-7.331 15.385-15.922 15.385H176c-8.765 0-15.937-7.143-15.986-15.924-.383-66.967 9.311-227.607 107.336-272.811a8.004 8.004 0 004.306-9.597c-.428-1.407-2.182-5.597-7.807-5.597-.643 0-1.336.055-2.084.174-13.665 2.191-47.576 6.592-67.279.151l-1.069-.35c-13.718-4.493-34.449-11.286-57.404-7.271-18.55 3.243-32.013 19.739-32.013 39.226 0 13.233-10.766 24-24 24H40c-13.234 0-24-10.767-24-24v-168c0-13.233 10.766-24 24-24h40c6.038 0 11.807 2.31 16.245 6.504 9.598 9.072 22.789 12.159 34.422 8.055 35.122-12.39 87.88-24.998 139.778-14.712 50.833 10.075 83.519 6.634 115.129 3.306 15.33-1.614 29.813-3.139 46.19-3.153 2.952.456 16.443 5.431 33.731 14.061C486.258 50.389 494.148 56.942 496 59.208v22.255z"/><path d="M110.848 73.666c3.057.444 6.173.669 9.261.669a63.59 63.59 0 0021.203-3.634c21.556-7.604 54.514-16.667 89.12-16.667 11.818 0 23.188 1.065 33.792 3.167 24.72 4.9 47.859 7.282 70.739 7.282a8 8 0 000-16c-21.824 0-43.945-2.282-67.629-6.976-11.626-2.304-24.042-3.473-36.903-3.473-36.87 0-71.708 9.559-94.442 17.578a48.01 48.01 0 01-22.842 2.22 7.997 7.997 0 00-9.066 6.768 7.998 7.998 0 006.767 9.066zm257.143-10.7c.229 0 .459-.01.691-.03 5.698-.487 11.131-1.04 16.155-1.565a7.998 7.998 0 007.125-8.788c-.459-4.394-4.389-7.591-8.788-7.125-4.946.517-10.291 1.06-15.857 1.537a8 8 0 00.674 15.971zm108.225 1.126c-12.615-7.821-35.355-18.468-45.123-21.698a7.978 7.978 0 00-2.625-.403c-4.177.059-8.413.22-12.948.493a7.999 7.999 0 00-7.505 8.465 8.003 8.003 0 008.465 7.506c3.785-.228 7.342-.373 10.827-.442 8.362 2.992 25.476 11.01 36.692 17.431v6.021a.39.39 0 01-.115.282c-15.439 16.579-45.856 52.243-76.106 104.823-37.183 64.632-62.349 133.951-74.8 206.032a8 8 0 1015.766 2.723C357.273 230.16 448.356 121.897 475.592 92.651a16.363 16.363 0 004.407-11.187V70.891a7.997 7.997 0 00-3.783-6.799z"/><path d="M317.149 418.02a7.995 7.995 0 00-8.883 7.006 618.287 618.287 0 00-2.995 32.938H192.133c.654-32.263 4.002-76.797 15.364-119.227 15.135-56.526 39.781-93.014 73.253-108.45 16.929-7.807 26.315-26.69 22.318-44.9-3.996-18.21-20.428-31.427-39.071-31.427-3.228 0-5.577.376-7.303.652-15.917 2.552-27.674 3.087-34.735 3.087-11.572 0-16.631-1.463-17.527-1.756l-1.059-.346c-12.254-4.014-30.772-10.079-53.023-10.079-6.724 0-13.4.571-19.846 1.698-31.289 5.468-54.659 31.236-58.074 62.747H48V57.954l31.77-.042a8 8 0 007.989-8.011 8 8 0 00-8-7.989h-.011l-39.759.053a8 8 0 00-7.989 8v168a8 8 0 008 8h40a8 8 0 008-8c0-27.278 19.034-50.403 45.259-54.986a99.553 99.553 0 0117.091-1.458c19.697 0 36.755 5.587 48.048 9.286l1.06.347c2.911.952 9.705 2.548 22.501 2.548 7.642 0 20.311-.571 37.274-3.29 1.445-.231 2.809-.45 4.764-.45 11.186 0 21.045 7.931 23.443 18.857 2.398 10.927-3.233 22.257-13.39 26.941-37.995 17.521-65.586 57.504-82.009 118.841-12.777 47.717-15.764 97.741-16.021 131.304a8 8 0 008 8.061h128.801a8 8 0 007.989-7.587 603.791 603.791 0 013.345-39.474 8 8 0 00-7.006-8.885z"/></g></svg>