<svg xmlns="http://www.w3.org/2000/svg" viewBox="0 0 475.996 475.996"><path d="M239.765 178.954c49.418 0 89.477-40.064 89.477-89.477C329.242 40.059 289.178 0 239.765 0c-49.418 0-89.477 40.059-89.477 89.477-.001 49.413 40.058 89.477 89.477 89.477zm-17.926-39.864l17.925-25.114 17.925 25.114h-35.85zm-5.918-62.966c4.91 0 9.467 1.49 13.261 4.029.108-.169.189-.353.302-.517-7.88-3.907-13.348-11.95-13.348-21.34 0-13.107 10.557-23.721 23.629-23.864.092 0 .174-.026.261-.026 13.194 0 23.89 10.696 23.89 23.89 0 9.549-5.642 17.725-13.737 21.55.097.148.164.312.251.466a23.77 23.77 0 0113.486-4.183c13.194 0 23.89 10.696 23.89 23.89s-10.696 23.89-23.89 23.89-23.89-10.696-23.89-23.89c0-.307.077-.589.087-.891-.118.005-.23.036-.353.036-.015 0-.026-.005-.041-.005.01.292.087.563.087.86 0 13.194-10.696 23.89-23.89 23.89s-23.89-10.696-23.89-23.89 10.695-23.895 23.895-23.895z"/><path d="M378.921 148.782c-49.418 0-89.477 40.059-89.477 89.477 0 49.418 40.059 89.477 89.477 89.477 49.418.005 89.477-40.054 89.477-89.472s-40.059-89.482-89.477-89.482zm0 145.413l-47.483-55.931 47.478-55.931 47.483 55.931-47.478 55.931z" fill="#fff"/><path d="M239.765 297.042c-49.418 0-89.477 40.059-89.477 89.477 0 49.418 40.059 89.477 89.477 89.477s89.477-40.064 89.477-89.477c.005-49.413-40.059-89.477-89.477-89.477zm-17.926 132.147l17.925-25.114 17.925 25.114h-35.85zm41.795-12.18c-13.184 0-23.869-10.685-23.869-23.869 0 13.184-10.685 23.869-23.869 23.869s-23.869-10.685-23.869-23.869a23.785 23.785 0 016.994-16.876l11.935-11.935 28.815-28.815 40.75 40.75a23.815 23.815 0 016.994 16.881c-.012 13.178-10.697 23.864-23.881 23.864z" fill="orange"/><path d="M186.557 233.702c0-49.418-40.059-89.477-89.477-89.477-49.423-.005-89.482 40.059-89.482 89.477 0 49.418 40.059 89.477 89.477 89.477 49.418.001 89.482-40.058 89.482-89.477zm-43.617-3.026a23.891 23.891 0 01-5.115 7.588l-11.935 11.935-28.815 28.815-28.815-28.815-11.935-11.935a23.815 23.815 0 01-6.994-16.881c0-13.184 10.685-23.869 23.869-23.869s23.869 10.685 23.869 23.869c0-6.589 2.673-12.559 6.994-16.881s10.286-6.994 16.875-6.994 12.559 2.673 16.881 6.994 6.994 10.286 6.994 16.881a23.774 23.774 0 01-1.873 9.293z" fill="#ff0"/></svg>